<svg aria-hidden="true" style="position: absolute; width: 0; height: 0; overflow: hidden;" version="1.1" xmlns="http://www.w3.org/2000/svg" xmlns:xlink="http://www.w3.org/1999/xlink">
<defs>
<symbol id="icon-left-arrow" viewBox="0 0 32 32">
<path fill="#407bff" style="fill: var(--color1, #407bff)" d="M10.294 16.707c-0.187-0.188-0.292-0.442-0.292-0.707s0.105-0.519 0.292-0.707l10-10c0.092-0.098 0.202-0.177 0.325-0.232s0.255-0.084 0.389-0.086c0.134-0.002 0.268 0.022 0.392 0.073s0.238 0.125 0.333 0.22c0.095 0.095 0.17 0.208 0.22 0.333s0.075 0.258 0.073 0.392c-0.002 0.134-0.032 0.267-0.086 0.389s-0.133 0.233-0.232 0.325l-9.293 9.293 9.293 9.293c0.098 0.092 0.177 0.202 0.232 0.325s0.084 0.255 0.086 0.39c0.002 0.134-0.022 0.268-0.073 0.392s-0.125 0.238-0.22 0.333c-0.095 0.095-0.208 0.17-0.333 0.22s-0.258 0.075-0.392 0.072c-0.134-0.002-0.267-0.032-0.389-0.086s-0.233-0.134-0.325-0.232l-10-10z"></path>
</symbol>
<symbol id="icon-right-arrow" viewBox="0 0 32 32">
<path fill="#407bff" style="fill: var(--color1, #407bff)" d="M21.706 16.707c0.187-0.188 0.292-0.442 0.292-0.707s-0.105-0.519-0.292-0.707l-10-10c-0.092-0.098-0.202-0.177-0.325-0.232s-0.255-0.084-0.389-0.086c-0.134-0.002-0.268 0.022-0.392 0.073s-0.238 0.125-0.333 0.22c-0.095 0.095-0.17 0.208-0.22 0.333s-0.075 0.258-0.073 0.392c0.002 0.134 0.032 0.267 0.086 0.389s0.133 0.233 0.232 0.325l9.293 9.293-9.293 9.293c-0.098 0.092-0.177 0.202-0.232 0.325s-0.084 0.255-0.086 0.39c-0.002 0.134 0.022 0.268 0.073 0.392s0.125 0.238 0.22 0.333c0.095 0.095 0.208 0.17 0.333 0.22s0.258 0.075 0.392 0.072c0.134-0.002 0.267-0.032 0.389-0.086s0.233-0.134 0.325-0.232l10-10z"></path>
</symbol>
<symbol id="icon-pen" viewBox="0 0 32 32">
<path fill="none" stroke="#9ebbff" style="stroke: var(--color2, #9ebbff)" stroke-linejoin="round" stroke-linecap="round" stroke-miterlimit="4" stroke-width="2" d="M22.483 5.983l2.249-2.251c0.469-0.469 1.105-0.732 1.768-0.732s1.299 0.263 1.768 0.732c0.469 0.469 0.732 1.105 0.732 1.768s-0.263 1.299-0.732 1.768l-14.159 14.159c-0.705 0.705-1.574 1.222-2.529 1.507l-3.58 1.067 1.067-3.58c0.284-0.955 0.802-1.824 1.507-2.529l11.909-11.908zM22.483 5.983l3.517 3.517M24 18.667v6.333c0 0.796-0.316 1.559-0.879 2.121s-1.326 0.879-2.121 0.879h-14c-0.796 0-1.559-0.316-2.121-0.879s-0.879-1.326-0.879-2.121v-14c0-0.796 0.316-1.559 0.879-2.121s1.326-0.879 2.121-0.879h6.333"></path>
</symbol>
<symbol id="icon-plus" viewBox="0 0 32 32">
<path fill="none" stroke="#407bff" style="stroke: var(--color1, #407bff)" stroke-linejoin="round" stroke-linecap="round" stroke-miterlimit="4" stroke-width="3.2" d="M16 3.2v25.6M28.8 16h-25.6"></path>
</symbol>
<symbol id="icon-trash" viewBox="0 0 32 32">
<path fill="none" stroke="#ef5050" style="stroke: var(--color3, #ef5050)" stroke-linejoin="round" stroke-linecap="round" stroke-miterlimit="4" stroke-width="2" d="M19.653 12l-0.461 12M12.808 24l-0.461-12M25.637 7.72c0.456 0.069 0.909 0.143 1.363 0.221M25.637 7.72l-1.424 18.511c-0.058 0.754-0.399 1.458-0.953 1.971s-1.283 0.799-2.039 0.798h-10.443c-0.756 0-1.484-0.285-2.039-0.798s-0.895-1.217-0.953-1.971l-1.424-18.511M25.637 7.72c-1.539-0.233-3.086-0.409-4.637-0.529M6.363 7.72c-0.456 0.068-0.909 0.141-1.363 0.22M6.363 7.72c1.539-0.233 3.086-0.409 4.637-0.529M21 7.191v-1.221c0-1.573-1.213-2.885-2.787-2.935-1.475-0.047-2.951-0.047-4.427 0-1.573 0.049-2.787 1.363-2.787 2.935v1.221M21 7.191c-3.328-0.257-6.672-0.257-10 0"></path>
</symbol>
<symbol id="icon-glass" viewBox="0 0 25 32">
<path fill="#407bff" style="fill: var(--color1, #407bff)" d="M0.759 0.379l2.247 31.156v0.085h19.342l2.247-31.144v-0.097h-23.836zM21.553 30.748h-17.747l-1.685-23.337h0.926l1.524 20.567c0.009 0.108 0.057 0.209 0.136 0.283s0.181 0.116 0.288 0.117h0.036c0.056-0.004 0.11-0.019 0.16-0.044s0.095-0.060 0.131-0.103c0.037-0.043 0.065-0.093 0.082-0.146s0.025-0.111 0.021-0.167l-1.524-20.506h19.336l-1.685 23.337zM23.298 6.538h-19.462l-0.335-4.546c-0.010-0.111-0.062-0.214-0.144-0.288s-0.188-0.114-0.298-0.112c-0.113 0.011-0.217 0.066-0.29 0.153s-0.111 0.2-0.104 0.314l0.335 4.486h-0.938l-0.382-5.298h22.001l-0.382 5.292z"></path>
<path fill="#407bff" style="fill: var(--color1, #407bff)" d="M7.607 11.727c0.279 0 0.552-0.084 0.783-0.241s0.413-0.381 0.519-0.642c0.107-0.261 0.135-0.549 0.080-0.827s-0.189-0.532-0.386-0.732c-0.197-0.2-0.448-0.336-0.722-0.392s-0.557-0.027-0.815 0.081c-0.258 0.108-0.478 0.292-0.633 0.527s-0.238 0.512-0.238 0.795c0 0.379 0.149 0.743 0.413 1.012s0.623 0.419 0.997 0.419zM7.607 9.732c0.11 0 0.217 0.033 0.309 0.095s0.163 0.15 0.205 0.253c0.042 0.103 0.053 0.216 0.032 0.326s-0.074 0.21-0.152 0.289c-0.078 0.079-0.177 0.133-0.285 0.154s-0.22 0.011-0.321-0.032c-0.102-0.043-0.188-0.115-0.249-0.208s-0.094-0.202-0.094-0.313c0-0.149 0.059-0.293 0.163-0.399s0.246-0.165 0.393-0.165z"></path>
<path fill="#407bff" style="fill: var(--color1, #407bff)" d="M7.601 16.376c0.004 0.282 0.089 0.557 0.247 0.79s0.379 0.414 0.637 0.519 0.542 0.131 0.814 0.073c0.273-0.058 0.522-0.196 0.717-0.397s0.327-0.457 0.38-0.734 0.023-0.564-0.086-0.824c-0.108-0.26-0.29-0.482-0.522-0.638s-0.505-0.238-0.783-0.237c-0.186 0.001-0.37 0.039-0.542 0.112s-0.327 0.181-0.458 0.315-0.234 0.294-0.303 0.47c-0.069 0.175-0.104 0.363-0.102 0.552zM9.561 16.376c0 0.111-0.033 0.221-0.094 0.313s-0.148 0.165-0.249 0.208c-0.102 0.043-0.213 0.054-0.321 0.032s-0.207-0.076-0.285-0.154-0.131-0.179-0.152-0.289c-0.021-0.109-0.010-0.223 0.032-0.326s0.113-0.191 0.205-0.253 0.199-0.095 0.309-0.095c0.147 0 0.289 0.059 0.393 0.165s0.163 0.249 0.163 0.399z"></path>
<path fill="#407bff" style="fill: var(--color1, #407bff)" d="M17.622 16.412c0.279 0 0.552-0.084 0.783-0.241s0.413-0.38 0.519-0.642c0.107-0.262 0.135-0.549 0.080-0.827s-0.189-0.532-0.386-0.732-0.448-0.336-0.722-0.392c-0.274-0.055-0.557-0.027-0.815 0.081s-0.478 0.292-0.633 0.527c-0.155 0.235-0.238 0.512-0.238 0.795 0 0.379 0.148 0.743 0.413 1.011s0.623 0.419 0.997 0.419zM17.622 14.424c0.11 0 0.218 0.033 0.309 0.095s0.163 0.151 0.204 0.254c0.042 0.103 0.052 0.217 0.031 0.327s-0.076 0.21-0.154 0.289c-0.078 0.079-0.178 0.132-0.286 0.153s-0.22 0.009-0.322-0.035-0.188-0.117-0.248-0.21c-0.060-0.094-0.092-0.203-0.091-0.315 0.002-0.149 0.061-0.29 0.165-0.395s0.244-0.163 0.391-0.163z"></path>
<path fill="#407bff" style="fill: var(--color1, #407bff)" d="M12.71 13.715c0.279 0 0.552-0.084 0.783-0.241s0.413-0.381 0.519-0.642c0.107-0.261 0.135-0.549 0.080-0.827s-0.189-0.532-0.386-0.732c-0.197-0.2-0.448-0.336-0.722-0.392s-0.557-0.027-0.815 0.081c-0.258 0.108-0.478 0.292-0.633 0.527s-0.238 0.512-0.238 0.795c0 0.379 0.149 0.743 0.413 1.012s0.623 0.419 0.997 0.419zM12.71 11.721c0.11 0 0.217 0.033 0.309 0.095s0.163 0.15 0.205 0.253c0.042 0.103 0.053 0.216 0.032 0.326s-0.074 0.21-0.152 0.289c-0.078 0.079-0.177 0.133-0.285 0.154s-0.22 0.011-0.321-0.032c-0.102-0.043-0.188-0.115-0.249-0.208s-0.094-0.202-0.094-0.313c-0.004-0.077 0.007-0.153 0.033-0.225s0.066-0.138 0.118-0.193c0.052-0.056 0.115-0.1 0.184-0.13s0.144-0.046 0.22-0.046v0.030z"></path>
<path fill="#407bff" style="fill: var(--color1, #407bff)" d="M10.021 21.825c0.006 0.232 0.079 0.458 0.211 0.648s0.316 0.337 0.529 0.422 0.447 0.104 0.671 0.055c0.224-0.049 0.429-0.164 0.589-0.33s0.268-0.377 0.311-0.605c0.043-0.229 0.018-0.465-0.071-0.679s-0.238-0.397-0.429-0.526c-0.191-0.129-0.415-0.197-0.644-0.197-0.312 0.008-0.608 0.139-0.826 0.366s-0.339 0.53-0.339 0.847zM11.186 21.51c0.061 0 0.122 0.018 0.173 0.053s0.091 0.084 0.114 0.141c0.024 0.058 0.030 0.121 0.018 0.182s-0.042 0.117-0.085 0.161-0.099 0.074-0.159 0.086c-0.060 0.012-0.123 0.006-0.18-0.018s-0.105-0.064-0.139-0.116c-0.034-0.052-0.052-0.113-0.052-0.175 0-0.084 0.033-0.164 0.091-0.223s0.137-0.092 0.22-0.092z"></path>
<path fill="#407bff" style="fill: var(--color1, #407bff)" d="M15.656 20.51c0.239 0.008 0.475-0.056 0.678-0.186s0.362-0.317 0.458-0.54c0.096-0.222 0.124-0.469 0.080-0.708s-0.157-0.459-0.326-0.631c-0.168-0.173-0.384-0.29-0.619-0.337s-0.478-0.021-0.698 0.074c-0.22 0.095-0.407 0.255-0.537 0.459s-0.196 0.443-0.19 0.686c0.007 0.309 0.131 0.604 0.345 0.823s0.503 0.348 0.808 0.359zM15.656 19.012c0.082 0 0.161 0.033 0.22 0.092s0.091 0.139 0.091 0.223c0 0.084-0.033 0.164-0.091 0.223s-0.137 0.092-0.22 0.092c-0.083 0-0.163-0.033-0.222-0.092s-0.093-0.139-0.095-0.223c0-0.042 0.008-0.083 0.024-0.122s0.039-0.074 0.069-0.103 0.064-0.052 0.103-0.068c0.038-0.015 0.079-0.023 0.121-0.022z"></path>
<path fill="#407bff" style="fill: var(--color1, #407bff)" d="M18.117 10.726c0.236 0 0.467-0.071 0.664-0.204s0.35-0.323 0.44-0.544c0.090-0.222 0.114-0.465 0.068-0.7s-0.16-0.451-0.327-0.621c-0.167-0.17-0.38-0.285-0.612-0.332s-0.472-0.023-0.69 0.069c-0.218 0.092-0.405 0.247-0.536 0.447s-0.201 0.434-0.201 0.674c0 0.322 0.126 0.63 0.35 0.857s0.528 0.355 0.845 0.355zM18.117 9.229c0.046-0.013 0.095-0.016 0.142-0.007s0.092 0.029 0.13 0.058c0.038 0.029 0.070 0.067 0.091 0.111s0.033 0.092 0.033 0.141-0.011 0.097-0.033 0.141c-0.021 0.044-0.052 0.082-0.091 0.111s-0.083 0.049-0.13 0.058c-0.047 0.009-0.096 0.007-0.142-0.007-0.046 0.013-0.095 0.016-0.142 0.007s-0.092-0.029-0.13-0.058c-0.038-0.029-0.070-0.067-0.091-0.111s-0.033-0.092-0.033-0.141 0.011-0.097 0.033-0.141c0.021-0.044 0.052-0.082 0.091-0.111s0.083-0.049 0.13-0.058c0.047-0.009 0.096-0.007 0.142 0.007z"></path>
<path fill="#407bff" style="fill: var(--color1, #407bff)" d="M6.436 29.226c-0.054 0.025-0.102 0.061-0.141 0.106s-0.069 0.097-0.088 0.154c-0.019 0.057-0.025 0.117-0.020 0.177s0.023 0.118 0.051 0.17c0.037 0.071 0.092 0.13 0.159 0.172s0.145 0.064 0.223 0.065c0.066 0.002 0.132-0.013 0.191-0.042 1.826-0.949 3.846-1.447 5.898-1.455 2.171 0.032 4.312 0.521 6.286 1.436 0.078 0.041 0.167 0.057 0.254 0.046s0.169-0.050 0.234-0.11c0.065-0.060 0.111-0.139 0.13-0.226s0.012-0.178-0.021-0.261c-0.042-0.108-0.123-0.194-0.227-0.242-2.090-0.97-4.358-1.486-6.657-1.515-2.181 0.002-4.33 0.525-6.274 1.527z"></path>
</symbol>
</defs>
</svg>
