<svg xmlns="http://www.w3.org/2000/svg" aria-hidden="true" style="position:absolute;width:0;height:0;overflow:hidden">
  <defs>
    <symbol id="icon-arrow-left" viewBox="0 0 32 32">
      <path d="M9.706 10.293a1.002 1.002 0 0 1 0 1.414L6.413 15H28a.997.997 0 0 1 1 1 1 1 0 0 1-1 1H6.413l3.293 3.293a1.002 1.002 0 0 1 .025 1.439.992.992 0 0 1-.725.293 1.001 1.001 0 0 1-.714-.318l-5-5a1.002 1.002 0 0 1 0-1.414l5-5a1.002 1.002 0 0 1 1.414 0z"/>
    </symbol>
    <symbol id="icon-arrow-right-on-rectangle" viewBox="0 0 32 32">
      <path d="M10 3.333c-.972 0-1.906.385-2.594 1.073S6.333 6.028 6.333 7v18A3.665 3.665 0 0 0 10 28.667h8A3.667 3.667 0 0 0 21.667 25v-5a.667.667 0 1 0-1.334 0v5A2.331 2.331 0 0 1 18 27.333h-8A2.331 2.331 0 0 1 7.667 25V7A2.331 2.331 0 0 1 10 4.667h8A2.331 2.331 0 0 1 20.333 7v5a.667.667 0 1 0 1.334 0V7A3.667 3.667 0 0 0 18 3.333zm14.529 8.196a.663.663 0 0 0 0 .942l2.862 2.862H12a.667.667 0 1 0 0 1.334h15.391l-2.862 2.862a.663.663 0 0 0 0 .942.663.663 0 0 0 .942 0l4-4a.658.658 0 0 0 .144-.212l.002-.004a.662.662 0 0 0 .049-.252v-.006a.657.657 0 0 0-.051-.256l.002.004a.67.67 0 0 0-.146-.216l-4-4a.663.663 0 0 0-.942 0z"/>
    </symbol>
    <symbol id="icon-arrow-up" viewBox="0 0 32 32">
      <path d="M16 3.333a.665.665 0 0 0-.471.195l-6 6a.663.663 0 0 0 0 .942.663.663 0 0 0 .942 0l4.862-4.862v16.391a.667.667 0 1 0 1.334 0V5.608l4.862 4.862a.663.663 0 0 0 .942 0 .663.663 0 0 0 0-.942l-6-6A.663.663 0 0 0 16 3.333zm-12 18a.667.667 0 0 0-.667.667v3c0 .972.385 1.906 1.073 2.594S6.028 28.667 7 28.667h18A3.667 3.667 0 0 0 28.667 25v-3a.667.667 0 1 0-1.334 0v3A2.331 2.331 0 0 1 25 27.333H7A2.331 2.331 0 0 1 4.667 25v-3A.667.667 0 0 0 4 21.333z"/>
    </symbol>
    <symbol id="icon-calendar-days" viewBox="0 0 32 32">
      <path d="M9 3.2a.8.8 0 0 0-.8.8v2.2H7A3.798 3.798 0 0 0 3.2 10v15A3.8 3.8 0 0 0 7 28.801h18A3.801 3.801 0 0 0 28.801 25V10A3.801 3.801 0 0 0 25 6.2h-1.2V4a.8.8 0 1 0-1.6 0v2.2H9.8V4a.8.8 0 0 0-.8-.8zM7 7.8h18a2.199 2.199 0 0 1 2.2 2.2v1.988c-.646-.47-1.392-.787-2.2-.787H7c-.808 0-1.554.318-2.2.787V10A2.199 2.199 0 0 1 7 7.8zm0 5h18a2.199 2.199 0 0 1 2.2 2.2v10a2.199 2.199 0 0 1-2.2 2.2H7A2.199 2.199 0 0 1 4.8 25V15A2.199 2.199 0 0 1 7 12.8zm9 3.4a.8.8 0 0 0-.8.8v.011a.8.8 0 0 0 .8.8h.011a.8.8 0 0 0 .8-.8V17a.8.8 0 0 0-.8-.8zm3 0a.8.8 0 0 0-.8.8v.011a.8.8 0 0 0 .8.8h.011a.8.8 0 0 0 .8-.8V17a.8.8 0 0 0-.8-.8zm3 0a.8.8 0 0 0-.8.8v.011a.8.8 0 0 0 .8.8h.011a.8.8 0 0 0 .8-.8V17a.8.8 0 0 0-.8-.8zm-5.994.016.788.791-.788.788-.791-.788zm3 0 .788.791-.788.788-.791-.788zm3 0 .788.791-.788.788-.791-.788zM10 19.2a.8.8 0 0 0-.8.8v.011a.8.8 0 0 0 .8.8h.011a.8.8 0 0 0 .8-.8V20a.8.8 0 0 0-.8-.8zm3 0a.8.8 0 0 0-.8.8v.011a.8.8 0 0 0 .8.8h.011a.8.8 0 0 0 .8-.8V20a.8.8 0 0 0-.8-.8zm3 0a.8.8 0 0 0-.8.8v.011a.8.8 0 0 0 .8.8h.011a.8.8 0 0 0 .8-.8V20a.8.8 0 0 0-.8-.8zm3 0a.8.8 0 0 0-.8.8v.011a.8.8 0 0 0 .8.8h.011a.8.8 0 0 0 .8-.8V20a.8.8 0 0 0-.8-.8zm3 0a.8.8 0 0 0-.8.8v.011a.8.8 0 0 0 .8.8h.011a.8.8 0 0 0 .8-.8V20a.8.8 0 0 0-.8-.8zm-11.994.016.787.791-.787.788-.791-.788zm3 0 .787.791-.787.788-.791-.788zm3 0 .788.791-.788.788-.791-.788zm3 0 .788.791-.788.788-.791-.788zm3 0 .788.791-.788.788-.791-.788zM10 22.2a.8.8 0 0 0-.8.8v.011a.8.8 0 0 0 .8.8h.011a.8.8 0 0 0 .8-.8V23a.8.8 0 0 0-.8-.8zm3 0a.8.8 0 0 0-.8.8v.011a.8.8 0 0 0 .8.8h.011a.8.8 0 0 0 .8-.8V23a.8.8 0 0 0-.8-.8zm3 0a.8.8 0 0 0-.8.8v.011a.8.8 0 0 0 .8.8h.011a.8.8 0 0 0 .8-.8V23a.8.8 0 0 0-.8-.8zm3 0a.8.8 0 0 0-.8.8v.011a.8.8 0 0 0 .8.8h.011a.8.8 0 0 0 .8-.8V23a.8.8 0 0 0-.8-.8zm-8.994.016.787.791-.787.788-.791-.788zm3 0 .787.791-.787.788-.791-.788zm3 0 .788.791-.788.788-.791-.788zm3 0 .788.791-.788.788-.791-.788z"/>
    </symbol>
    <symbol id="icon-chevron-double-up" viewBox="0 0 32 32">
      <path d="M16.706 21.707a1.002 1.002 0 0 1-1.414 0l-10-10a.996.996 0 0 1 .025-1.388 1.002 1.002 0 0 1 1.388-.025l9.293 9.293 9.293-9.293a1.013 1.013 0 0 1 .714-.318.993.993 0 0 1 .725.293.992.992 0 0 1 .293.725 1.001 1.001 0 0 1-.318.714l-10 10z"/>
    </symbol>
    <symbol id="icon-cog-6-tooth" viewBox="0 0 32 32">
      <path d="M14.273 3.333a2.173 2.173 0 0 0-2.138 1.81l-.286 1.708c-.045.272-.237.527-.523.685a8.888 8.888 0 0 0-.315.182c-.281.17-.596.209-.857.112l-1.62-.607a2.17 2.17 0 0 0-2.638.946l-1.729 2.997h-.002a2.17 2.17 0 0 0 .502 2.753l1.339 1.104c.212.174.337.469.331.794-.002.122-.002.243 0 .365.006.327-.12.621-.331.794L4.667 18.08a2.158 2.158 0 0 0-.755 1.284v.002a2.165 2.165 0 0 0 .255 1.469l1.729 2.995v.002c.257.444.663.78 1.146.953s1.01.17 1.49-.01l1.622-.607c.261-.097.576-.058.857.112.104.063.209.124.315.182.286.159.478.413.523.685l.284 1.708a2.173 2.173 0 0 0 2.138 1.81h3.458a2.175 2.175 0 0 0 2.138-1.813l.284-1.706c.046-.274.238-.527.523-.685h.002c.106-.059.21-.12.313-.182.283-.17.598-.209.857-.112l1.622.607a2.17 2.17 0 0 0 2.638-.946l1.729-2.995v-.002a2.175 2.175 0 0 0-.5-2.753l-1.339-1.104h-.002c-.212-.174-.334-.469-.328-.794.002-.122.002-.243 0-.365-.006-.327.116-.62.328-.794h.002l1.336-1.104a2.17 2.17 0 0 0 .758-1.284v-.002a2.164 2.164 0 0 0-.255-1.469l-1.729-2.995v-.002a2.163 2.163 0 0 0-2.638-.943l-1.622.607c-.258.097-.576.059-.854-.109v-.002c-.101-.061-.205-.124-.318-.185h-.003c-.283-.159-.475-.411-.521-.682l-.284-1.708a2.173 2.173 0 0 0-2.138-1.81zm0 1.334h3.456c.412 0 .756.291.823.695l.284 1.708v.002c.122.724.597 1.301 1.195 1.633l.001.001.004.002c.084.046.172.097.266.154.585.354 1.324.477 2.013.219l1.622-.609c.185-.07.387-.072.573-.005s.344.199.443.37l1.727 2.995c.099.171.134.371.099.565s-.139.369-.292.495l-1.339 1.104c-.567.466-.828 1.167-.815 1.849.002.105.002.21 0 .315-.013.683.248 1.381.815 1.846l1.339 1.104a.825.825 0 0 1 .195 1.057l-1.732 2.997a.83.83 0 0 1-1.013.364l-1.622-.609c-.688-.258-1.427-.134-2.013.219l-.003.003c-.089.054-.18.106-.271.156-.598.33-1.071.907-1.193 1.63v.002l-.284 1.706a.828.828 0 0 1-.823.698H14.27a.828.828 0 0 1-.823-.695l-.284-1.708c-.12-.725-.595-1.304-1.193-1.635a7.301 7.301 0 0 1-.271-.156c-.585-.353-1.324-.476-2.013-.219l-1.625.609a.836.836 0 0 1-1.013-.364L5.319 20.17c-.099-.171-.134-.371-.099-.565s.139-.369.292-.495l1.339-1.102c.567-.466.83-1.168.818-1.852a8.27 8.27 0 0 1 0-.315c.013-.682-.251-1.381-.818-1.846l-1.339-1.104a.836.836 0 0 1-.193-1.06l1.729-2.995a.839.839 0 0 1 1.016-.364l1.62.609h.002c.689.257 1.428.134 2.013-.219l.003-.003c.087-.053.178-.106.268-.156.599-.33 1.073-.908 1.193-1.633l.286-1.708a.827.827 0 0 1 .823-.695z"/>
      <path d="M16 11.333a4.666 4.666 0 1 0 .002 9.333A4.666 4.666 0 0 0 16 11.333zm0 1.334a3.336 3.336 0 0 1 3.334 3.334A3.336 3.336 0 0 1 16 19.335a3.332 3.332 0 0 1-3.334-3.334A3.332 3.332 0 0 1 16 12.667z"/>
    </symbol>
    <symbol id="icon-eye" viewBox="0 0 32 32">
      <path d="M16 5.333c-6.475 0-11.979 4.203-13.917 10.034-.137.413-.137.86 0 1.273C4.025 22.468 9.528 26.666 16 26.666c6.474 0 11.979-4.201 13.917-10.031v-.003a2.002 2.002 0 0 0 0-1.273v-.003C27.974 9.529 22.472 5.333 16 5.333zm0 1.334c5.896 0 10.887 3.82 12.651 9.115l.003.003a.658.658 0 0 1-.003.427v.002c-1.759 5.296-6.753 9.12-12.651 9.12-5.896 0-10.889-3.82-12.654-9.115a.673.673 0 0 1 0-.43v-.002C5.107 10.49 10.101 6.667 16 6.667z"/>
      <path d="M16 11.333a4.666 4.666 0 1 0 .002 9.333A4.666 4.666 0 0 0 16 11.333zm0 1.334a3.336 3.336 0 0 1 3.334 3.334A3.336 3.336 0 0 1 16 19.335a3.332 3.332 0 0 1-3.334-3.334A3.332 3.332 0 0 1 16 12.667z"/>
    </symbol>
    <symbol id="icon-eye-slash" viewBox="0 0 32 32">
      <path d="M4 3.333a.663.663 0 0 0-.471 1.137l9.172 9.172h.002v.002L27.529 28.47a.663.663 0 0 0 .942 0 .663.663 0 0 0 0-.942l-3.826-3.826c2.545-1.886 4.503-4.467 5.414-7.516a.662.662 0 0 0-.001-.385l.001.005c-1.805-6.059-7.423-10.474-14.06-10.474-2.676-.004-5.266.793-7.549 2.174L4.471 3.527A.663.663 0 0 0 4 3.332zm12 3.334c5.969 0 10.982 3.932 12.688 9.328-.87 2.751-2.633 5.099-4.971 6.779l-4.036-4.039c.228-.307.486-.593.633-.948a4.678 4.678 0 0 0 0-3.57v-.002a4.656 4.656 0 0 0-2.526-2.523 4.659 4.659 0 0 0-3.572 0c-.355.147-.641.405-.948.633L9.445 8.502c2.005-1.144 4.239-1.837 6.557-1.833zM5.253 10.299a.67.67 0 0 0-.455.233l-.001.001a14.636 14.636 0 0 0-2.857 5.276.662.662 0 0 0 .001.385l-.001-.005C3.745 22.25 9.363 26.666 16 26.666c1.386 0 2.726-.193 3.997-.552a.667.667 0 0 0 .46-.828l.001.005a.667.667 0 0 0-.828-.46l.005-.001a13.358 13.358 0 0 1-3.635.503c-5.966 0-10.977-3.928-12.685-9.323.532-1.686 1.357-3.265 2.5-4.615a.663.663 0 0 0-.077-.939l-.001-.001a.663.663 0 0 0-.431-.158l-.055.002h.002zM16 12.667a3.344 3.344 0 0 1 3.081 2.057c.168.405.253.838.253 1.276s-.085.872-.253 1.276c-.08.193-.232.342-.346.516l-4.526-4.526c.174-.114.323-.264.516-.344a3.325 3.325 0 0 1 1.276-.255z"/>
    </symbol>
    <symbol id="icon-minus-small" viewBox="0 0 32 32">
      <path d="M7 16a.997.997 0 0 1 1-1h16a.997.997 0 0 1 1 1 .997.997 0 0 1-1 1H8a.997.997 0 0 1-1-1z"/>
    </symbol>
    <symbol id="icon-pencil" viewBox="0 0 32 32">
      <path d="M26.5 2.333c-.84 0-1.646.333-2.24.927L10.101 17.419a6.653 6.653 0 0 0-1.674 2.81L7.362 23.81a.667.667 0 0 0 .833.828l-.005.001 3.581-1.065a6.674 6.674 0 0 0 2.81-1.674L28.74 7.741a3.168 3.168 0 0 0-2.24-5.407zm0 1.334a1.834 1.834 0 0 1 1.297 3.13l-1.779 1.779-2.594-2.594 1.779-1.779c.344-.344.81-.536 1.297-.536zm-4.018 3.257 2.594 2.594-11.438 11.438a5.336 5.336 0 0 1-2.247 1.339l-2.401.716.716-2.401a5.32 5.32 0 0 1 1.339-2.247zM7 7.333c-.972 0-1.906.385-2.594 1.073S3.333 10.028 3.333 11v14c0 .972.385 1.906 1.073 2.594S6.028 28.667 7 28.667h14A3.667 3.667 0 0 0 24.667 25v-6.333a.667.667 0 1 0-1.334 0V25A2.331 2.331 0 0 1 21 27.333H7A2.331 2.331 0 0 1 4.667 25V11A2.331 2.331 0 0 1 7 8.667h6.333a.667.667 0 1 0 0-1.334z"/>
    </symbol>
    <symbol id="icon-plus-circle" viewBox="0 0 32 32">
      <path d="M16 3.333A12.67 12.67 0 0 0 4.297 20.846a12.674 12.674 0 0 0 11.702 7.82 12.654 12.654 0 0 0 8.955-3.711A12.67 12.67 0 0 0 28.665 16 12.67 12.67 0 0 0 15.998 3.333zm0 1.334a11.334 11.334 0 0 1 0 22.666 11.32 11.32 0 0 1-8.013-3.32A11.331 11.331 0 0 1 4.667 16 11.334 11.334 0 0 1 16 4.667zm0 6.666a.667.667 0 0 0-.667.667v3.333H12a.667.667 0 1 0 0 1.334h3.333V20a.667.667 0 1 0 1.334 0v-3.333H20a.667.667 0 1 0 0-1.334h-3.333V12a.667.667 0 0 0-.667-.667z"/>
    </symbol>
    <symbol id="icon-plus-small" viewBox="0 0 32 32">
      <path d="M16 7.333a.667.667 0 0 0-.667.667v7.333H8a.667.667 0 1 0 0 1.334h7.333V24a.667.667 0 1 0 1.334 0v-7.333H24a.667.667 0 1 0 0-1.334h-7.333V8A.667.667 0 0 0 16 7.333z"/>
    </symbol>
    <symbol id="icon-presantation-chart-bar" viewBox="0 0 32 32">
      <path d="M3 3.2a.8.8 0 1 0 0 1.6h1.2V19A3.8 3.8 0 0 0 8 22.801h1.889l-.981 2.947-.667 2a.8.8 0 0 0 .501 1.01l.006.002a.8.8 0 0 0 1.01-.501l.002-.006.484-1.453h11.513l.484 1.453a.801.801 0 0 0 1.018.504l-.006.002a.801.801 0 0 0 .504-1.018l.002.006-.667-2-.981-2.947H24a3.801 3.801 0 0 0 3.801-3.801v-14.2h1.2a.8.8 0 1 0 0-1.6h-24zm2.8 1.6h20.4V19a2.199 2.199 0 0 1-2.2 2.2H8A2.199 2.199 0 0 1 5.8 19zM20 8.2a.8.8 0 0 0-.8.8v8a.8.8 0 1 0 1.6 0V9a.8.8 0 0 0-.8-.8zm-4 3a.8.8 0 0 0-.8.8v5a.8.8 0 1 0 1.6 0v-5a.8.8 0 0 0-.8-.8zm-4 3a.8.8 0 0 0-.8.8v2a.8.8 0 1 0 1.6 0v-2a.8.8 0 0 0-.8-.8zm-.423 8.6h8.847l.8 2.4H10.777z"/>
    </symbol>
    <symbol id="icon-trash" viewBox="0 0 32 32">
      <path d="M13.766 2.367c-1.933.061-3.432 1.687-3.432 3.602v.628a65.41 65.41 0 0 0-4.021.458l-.047.005h-.003c-.461.069-.92.145-1.378.224a.669.669 0 0 0-.542.775l-.001-.004a.669.669 0 0 0 .775.542l-.004.001c.212-.037.425-.067.638-.102l1.37 17.786a3.666 3.666 0 0 0 3.656 3.386H21.22a3.667 3.667 0 0 0 3.656-3.386l1.37-17.786c.213.035.426.067.638.104a.668.668 0 0 0 .771-.54l.001-.004a.667.667 0 0 0-.537-.77l-.004-.001c-.458-.08-.917-.154-1.378-.224l-.049-.005a64.554 64.554 0 0 0-4.021-.458V5.97c0-1.916-1.5-3.541-3.432-3.602a69.365 69.365 0 0 0-4.469 0zm.041 1.334a68.203 68.203 0 0 1 4.385 0c1.214.038 2.141 1.038 2.141 2.268v.557a65.619 65.619 0 0 0-8.667 0v-.557c0-1.229.927-2.23 2.141-2.268zm-2.755 4.153a64.103 64.103 0 0 1 9.896 0 63.15 63.15 0 0 1 3.974.456L23.55 26.18a2.337 2.337 0 0 1-2.328 2.154H10.779a2.332 2.332 0 0 1-2.328-2.154L7.079 8.31a63.15 63.15 0 0 1 3.974-.456zm1.268 3.479a.667.667 0 0 0-.64.694v-.001l.461 12a.667.667 0 0 0 .666.641l.028-.001h-.001a.667.667 0 0 0 .641-.666l-.001-.028v.001l-.461-12a.667.667 0 0 0-.666-.641l-.028.001h.001zm7.36 0-.027-.001a.667.667 0 0 0-.666.64v.001l-.461 12-.001.027c0 .359.284.652.64.666h.001l.027.001a.667.667 0 0 0 .666-.64v-.001l.461-12 .001-.027a.667.667 0 0 0-.64-.666h-.001z"/>
    </symbol>
    <symbol id="icon-user" viewBox="0 0 32 32">
      <path d="M16 0C7.171 0 0 7.171 0 16s7.171 16 16 16 16-7.171 16-16S24.829 0 16 0zm0 1.333c8.108 0 14.667 6.559 14.667 14.667S24.108 30.667 16 30.667 1.333 24.108 1.333 16 7.892 1.333 16 1.333z"/>
      <path d="M16 4.667c-1.242 0-2.434.508-3.307 1.404s-1.359 2.104-1.359 3.365c0 1.26.486 2.471 1.359 3.367s2.065 1.404 3.307 1.404 2.434-.508 3.307-1.404 1.359-2.107 1.359-3.367c0-1.26-.486-2.469-1.359-3.365S17.242 4.667 16 4.667zM16 6c.88 0 1.724.357 2.352 1s.982 1.519.982 2.435-.355 1.794-.982 2.438c-.627.643-1.472 1-2.352 1s-1.724-.357-2.352-1c-.627-.643-.982-1.522-.982-2.438s.355-1.792.982-2.435S15.12 6 16 6zm0 10.143c-2.278 0-4.466.921-6.086 2.555S7.37 22.547 7.333 24.87v.011c0 .265.155.494.379.602l.004.002A19.403 19.403 0 0 0 16 27.334c2.86.004 5.686-.627 8.284-1.849a.668.668 0 0 0 .383-.603v-.012.001c-.037-2.323-.961-4.538-2.581-6.172S18.279 16.144 16 16.144zm0 1.334c1.92 0 3.764.773 5.138 2.159 1.266 1.277 1.964 2.997 2.102 4.807C20.948 25.444 18.494 26.004 16 26c-2.578 0-5.01-.582-7.24-1.557.138-1.811.836-3.53 2.102-4.807A7.231 7.231 0 0 1 16 17.477z"/>
    </symbol>
    <symbol id="icon-wrench-screendriver" viewBox="0 0 32 32">
      <path d="M22.35 2.231a6.808 6.808 0 0 0-5.517 3.907 6.806 6.806 0 0 0-.608 3.444c.091 1.074-.136 2.049-.633 2.758L10.8 7.548V6.001a.8.8 0 0 0-.386-.684l-.004-.002-5-3a.794.794 0 0 0-.976.12l-2 2a.797.797 0 0 0-.118.98l-.002-.004 3 5A.8.8 0 0 0 6 10.8h1.547l4.619 4.619-8.434 6.945a4.19 4.19 0 0 0-1.529 3.039 4.19 4.19 0 0 0 4.398 4.398 4.175 4.175 0 0 0 1.681-.444 4.18 4.18 0 0 0 1.356-1.086l5.647-6.856 7.15 7.15.009.009a4.335 4.335 0 0 0 7.352-3.08 4.34 4.34 0 0 0-1.22-3.052l-.009-.009-6.622-6.622c.167.003.313-.05.48-.036l-.003-.002a6.808 6.808 0 0 0 6.133-2.845 6.798 6.798 0 0 0 .647-6.728.802.802 0 0 0-1.295-.236L23.943 9.93c-.436-.16-.871-.337-1.202-.667s-.507-.766-.667-1.202l3.964-3.964a.798.798 0 0 0-.231-1.293l-.005-.002a6.807 6.807 0 0 0-3.45-.572zm.153 1.592c.453-.044.879.146 1.325.22l-3.291 3.291a.797.797 0 0 0-.213.751l-.001-.005a4.814 4.814 0 0 0 3.598 3.6.798.798 0 0 0 .747-.214l3.291-3.292c.074.445.262.872.219 1.325a5.197 5.197 0 0 1-5.62 4.683h-.004c-.841-.07-1.75-.042-2.619.217-.116.035-.198.156-.313.2h-.025.001v.016c-.605.237-1.212.519-1.661 1.063v.002L8.403 27.257l-.002.002a2.605 2.605 0 0 1-1.88.946 2.607 2.607 0 0 1-1.966-.757 2.599 2.599 0 0 1 .189-3.845l.002-.002 9.116-7.506v-.002l.003-.002 2.323-1.914.01-.003-.006.002.133-.111.002-.002c1.42-1.171 1.624-3.054 1.492-4.617a5.204 5.204 0 0 1 4.683-5.622zm-17.38.185L9.2 6.453v1.425c0 .221.09.421.234.566l5.056 5.058-1.084.895-4.963-4.963a.797.797 0 0 0-.566-.234H6.452L4.007 5.123zm14.905 12.151 7.397 7.397a2.732 2.732 0 0 1-.032 3.838 2.736 2.736 0 0 1-3.838.032l-7.25-7.25 2.866-3.48c.214-.259.542-.389.856-.536zm.406 4.275a.797.797 0 0 0 0 1.132l3.5 3.5a.797.797 0 0 0 1.132 0 .797.797 0 0 0 0-1.132l-3.5-3.5a.797.797 0 0 0-1.132 0zM6.489 24.7a.8.8 0 0 0-.8.8v.011a.8.8 0 0 0 .8.8H6.5a.8.8 0 0 0 .8-.8V25.5a.8.8 0 0 0-.8-.8zm.005.016.791.791-.791.788-.787-.788z"/>
    </symbol>
    <symbol id="cup" viewBox="0 0 32 32">
      <path d="M5.565 2.782l1.901 26.364v0.071h16.366l1.901-26.352v-0.084h-20.17zM23.161 28.48h-15.017l-1.426-19.748h0.784l1.289 17.403c0.008 0.095 0.051 0.179 0.115 0.24l0 0c0.063 0.060 0.149 0.097 0.243 0.098h0.030c0.149-0.010 0.272-0.11 0.316-0.245l0.001-0.003c0.012-0.035 0.019-0.074 0.019-0.116 0-0.009-0-0.018-0.001-0.027l0 0.001-1.291-17.351h16.363l-1.426 19.747zM24.636 7.995h-16.468l-0.283-3.847c-0.009-0.097-0.054-0.182-0.121-0.243l-0-0c-0.065-0.059-0.151-0.095-0.246-0.095-0.002 0-0.004 0-0.006 0h0c-0.099 0.010-0.185 0.058-0.245 0.129l-0 0.001c-0.056 0.065-0.090 0.151-0.090 0.244 0 0.008 0 0.015 0.001 0.023l-0-0.001 0.284 3.796h-0.794l-0.324-4.483h18.617l-0.324 4.477z"></path>
      <path d="M11.36 12.384c0.236 0 0.467-0.071 0.662-0.204s0.349-0.322 0.44-0.542c0.057-0.137 0.091-0.296 0.091-0.463 0-0.334-0.133-0.636-0.35-0.857l0 0c-0.214-0.219-0.512-0.355-0.843-0.355-0.165 0-0.323 0.034-0.466 0.096l0.008-0.003c-0.222 0.095-0.405 0.249-0.532 0.442l-0.003 0.004c-0.126 0.189-0.202 0.422-0.202 0.673 0 0.333 0.133 0.635 0.35 0.856l-0-0c0.224 0.227 0.528 0.354 0.844 0.354zM11.36 10.697c0 0 0 0 0.001 0 0.195 0 0.363 0.12 0.432 0.291l0.001 0.003c0.023 0.054 0.036 0.117 0.036 0.183 0 0.131-0.052 0.25-0.137 0.337l0-0c-0.085 0.087-0.203 0.14-0.334 0.14-0.259 0-0.468-0.21-0.468-0.468 0-0.003 0-0.007 0-0.010v0.001c0-0 0-0.001 0-0.001 0-0.131 0.053-0.25 0.138-0.337l-0 0c0.085-0.086 0.202-0.139 0.332-0.139 0 0 0 0 0.001 0h-0zM11.355 16.318c0.007 0.497 0.31 0.921 0.741 1.105l0.008 0.003c0.132 0.055 0.285 0.087 0.445 0.087 0.334 0 0.635-0.139 0.849-0.362l0-0c0.212-0.22 0.342-0.52 0.342-0.85 0-0.169-0.034-0.331-0.096-0.477l0.003 0.008c-0.094-0.223-0.246-0.407-0.438-0.537l-0.004-0.003c-0.185-0.125-0.412-0.2-0.658-0.2-0.334 0-0.636 0.138-0.851 0.361l-0 0c-0.212 0.218-0.342 0.516-0.342 0.844 0 0.007 0 0.014 0 0.021v-0.001zM13.013 16.318c-0.001 0.196-0.119 0.364-0.288 0.439l-0.003 0.001c-0.053 0.023-0.116 0.037-0.181 0.037-0.13 0-0.248-0.054-0.332-0.14l-0-0c-0.084-0.086-0.136-0.204-0.136-0.334 0-0.261 0.208-0.473 0.467-0.48h0.001c0.26 0.001 0.471 0.212 0.471 0.473 0 0.002 0 0.003-0 0.005v-0zM19.834 16.348c0.236 0 0.467-0.071 0.663-0.204s0.348-0.321 0.439-0.542c0.057-0.137 0.091-0.296 0.091-0.463 0-0.333-0.133-0.636-0.349-0.857l0 0c-0.214-0.219-0.512-0.355-0.843-0.355-0.165 0-0.323 0.034-0.465 0.096l0.008-0.003c-0.223 0.095-0.405 0.248-0.533 0.441l-0.003 0.004c-0.126 0.189-0.201 0.422-0.201 0.672 0 0.334 0.134 0.636 0.35 0.857l-0-0c0.223 0.227 0.527 0.354 0.844 0.354zM19.834 14.667c0.001 0 0.001 0 0.002 0 0.196 0 0.363 0.121 0.432 0.292l0.001 0.003c0.022 0.054 0.035 0.116 0.035 0.181 0 0.133-0.053 0.253-0.14 0.34l0-0c-0.085 0.086-0.203 0.139-0.333 0.139-0.259 0-0.468-0.21-0.468-0.468 0-0.005 0-0.010 0-0.015l-0 0.001c0.001-0.131 0.054-0.248 0.14-0.334l-0 0c0.084-0.085 0.201-0.138 0.331-0.138h0zM15.677 14.067c0.236 0 0.467-0.071 0.663-0.204s0.349-0.322 0.44-0.543c0.057-0.137 0.090-0.296 0.090-0.462 0-0.334-0.133-0.636-0.349-0.857l0 0c-0.214-0.219-0.513-0.355-0.843-0.355-0.165 0-0.323 0.034-0.465 0.095l0.008-0.003c-0.223 0.095-0.405 0.248-0.533 0.441l-0.003 0.004c-0.126 0.189-0.201 0.422-0.201 0.672 0 0.334 0.134 0.636 0.35 0.857l-0-0c0.224 0.227 0.527 0.355 0.844 0.355zM15.677 12.379c0 0 0.001 0 0.001 0 0.196 0 0.363 0.121 0.432 0.292l0.001 0.003c0.022 0.054 0.035 0.116 0.035 0.182 0 0.131-0.053 0.251-0.138 0.338l0-0c-0.085 0.086-0.203 0.139-0.333 0.139-0.064 0-0.126-0.013-0.182-0.037l0.003 0.001c-0.172-0.073-0.291-0.24-0.291-0.435 0-0.002 0-0.004 0-0.006v0c-0-0.007-0.001-0.015-0.001-0.024 0-0.128 0.049-0.244 0.13-0.33l-0 0c0.085-0.092 0.207-0.149 0.341-0.149h0v0.027zM13.403 20.929c0.004 0.196 0.067 0.388 0.178 0.548s0.267 0.285 0.448 0.357c0.107 0.044 0.231 0.070 0.361 0.070 0.277 0 0.527-0.116 0.704-0.302l0-0c0.174-0.18 0.281-0.426 0.281-0.697 0-0.141-0.029-0.275-0.081-0.396l0.002 0.007c-0.078-0.184-0.203-0.335-0.36-0.442l-0.003-0.002c-0.153-0.104-0.342-0.167-0.545-0.167h-0c-0.275 0.008-0.522 0.125-0.698 0.309l-0 0c-0.178 0.185-0.287 0.437-0.287 0.715 0 0.001 0 0.001 0 0.002v-0zM14.388 20.662c0 0 0 0 0.001 0 0.109 0 0.203 0.067 0.241 0.163l0.001 0.002c0.013 0.030 0.020 0.065 0.020 0.102 0 0.073-0.029 0.14-0.077 0.189l0-0c-0.048 0.048-0.113 0.078-0.186 0.078-0.036 0-0.070-0.007-0.102-0.020l0.002 0.001c-0.096-0.041-0.163-0.135-0.163-0.244 0-0.001 0-0.002 0-0.003v0c0-0.071 0.028-0.139 0.077-0.188 0.047-0.048 0.113-0.078 0.186-0.078h0zM18.17 19.816c0.008 0 0.018 0 0.028 0 0.416 0 0.774-0.25 0.931-0.608l0.003-0.007c0.053-0.121 0.084-0.262 0.084-0.41 0-0.281-0.111-0.536-0.292-0.723l0 0c-0.183-0.187-0.438-0.303-0.72-0.303-0.143 0-0.279 0.030-0.401 0.083l0.006-0.003c-0.187 0.080-0.344 0.215-0.453 0.388-0.101 0.157-0.161 0.349-0.161 0.555 0 0.28 0.111 0.535 0.292 0.721l-0-0c0.181 0.187 0.427 0.295 0.684 0.304zM18.17 18.549c0.070 0 0.137 0.028 0.187 0.078 0.048 0.049 0.077 0.115 0.077 0.188s-0.029 0.14-0.077 0.189l0-0c-0.047 0.048-0.114 0.078-0.187 0.078s-0.139-0.030-0.187-0.078l-0-0c-0.049-0.048-0.079-0.115-0.081-0.188v-0c0-0.075 0.030-0.142 0.079-0.191v0c0.047-0.047 0.112-0.076 0.184-0.076 0.002 0 0.003 0 0.005 0h-0zM20.253 11.538c0.2 0 0.396-0.060 0.562-0.172 0.166-0.113 0.294-0.27 0.371-0.454l0.003-0.007c0.048-0.116 0.076-0.25 0.076-0.392 0-0.283-0.113-0.539-0.296-0.727l0 0c-0.181-0.186-0.434-0.301-0.714-0.301-0.14 0-0.274 0.029-0.395 0.081l0.006-0.002c-0.188 0.081-0.343 0.211-0.451 0.374l-0.002 0.004c-0.107 0.161-0.171 0.358-0.171 0.57 0 0.282 0.113 0.538 0.296 0.725l-0-0c0.19 0.192 0.447 0.3 0.716 0.3zM20.253 10.271c0.022-0.007 0.047-0.010 0.073-0.010 0.060 0 0.115 0.020 0.159 0.054l-0.001-0c0.064 0.049 0.104 0.125 0.104 0.21 0 0.001 0 0.002-0 0.003v-0c-0 0.086-0.041 0.163-0.103 0.212l-0.001 0c-0.044 0.034-0.099 0.054-0.159 0.054-0.026 0-0.051-0.004-0.074-0.011l0.002 0c-0.022 0.007-0.046 0.010-0.072 0.010-0.060 0-0.116-0.021-0.16-0.055l0.001 0c-0.064-0.049-0.104-0.125-0.104-0.21 0-0.001 0-0.001 0-0.002v0c0-0.087 0.041-0.164 0.104-0.213l0.001-0c0.043-0.033 0.098-0.053 0.158-0.053 0.026 0 0.051 0.004 0.075 0.011l-0.002-0zM10.369 27.191c-0.092 0.043-0.162 0.122-0.193 0.217l-0.001 0.003c-0.012 0.034-0.018 0.074-0.018 0.115 0 0.065 0.017 0.126 0.046 0.18l-0.001-0.002c0.063 0.118 0.183 0.197 0.323 0.2h0c0.003 0 0.007 0 0.010 0 0.055 0 0.107-0.013 0.153-0.037l-0.002 0.001c1.448-0.769 3.165-1.224 4.988-1.231h0.002c1.837 0.027 3.648 0.441 5.319 1.216 0.049 0.026 0.107 0.042 0.169 0.042 0.095 0 0.181-0.037 0.245-0.096l-0 0c0.074-0.068 0.12-0.165 0.12-0.273 0-0.050-0.010-0.099-0.028-0.142l0.001 0.002c-0.036-0.091-0.104-0.163-0.19-0.204l-0.002-0.001c-1.651-0.785-3.584-1.255-5.623-1.283l-0.009-0c-1.845 0.002-3.664 0.444-5.308 1.292z"></path>
    </symbol>
    <symbol id="icon-linkedin" viewBox="0 0 32 32">
      <path d="M24.005 4.397l-16.388 0.3c-0.013 0-0.025 0.001-0.037 0.001l0.002-0s-0.637 0.046-1.303 0.426c-0.665 0.38-1.403 1.154-1.603 2.421-0.102 0.647-0.141 1.821-0.166 3.325s-0.026 3.298-0.016 5.025c0.019 3.438 0.079 6.578 0.079 6.605-0.021 0.127-0.148 0.955 0.019 1.943 0.091 0.533 0.269 1.109 0.645 1.611 0.301 0.401 0.745 0.737 1.302 0.921 0.032 0.017 0.069 0.030 0.109 0.035l0.002 0c0.106 0.030 0.214 0.057 0.328 0.075 1.383 0.223 5.441 0.42 9.476 0.492 2.017 0.036 4.006 0.037 5.599-0.017 0.797-0.027 1.494-0.068 2.056-0.128s0.95-0.102 1.325-0.279c1.965-0.932 2.074-3.417 2.074-3.417 0.001-0.015 0.002-0.033 0.003-0.052v-0l-0.034-15.623c0.052-0.851-0.196-1.669-0.764-2.294-0.579-0.636-1.433-1.068-2.539-1.351-0.048-0.013-0.103-0.020-0.159-0.020-0.004 0-0.008 0-0.011 0h0.001zM23.918 5.679c0.911 0.242 1.512 0.58 1.848 0.95 0.345 0.38 0.478 0.792 0.433 1.386-0.001 0.015-0.002 0.032-0.002 0.049 0 0 0 0.001 0 0.001v-0l0.001 0.541c-0.038 0.005-0.072 0.015-0.104 0.031l0.002-0.001-3.585 1.703c-0.112 0.051-0.189 0.163-0.189 0.292 0 0.177 0.143 0.32 0.32 0.32 0.052 0 0.101-0.012 0.145-0.035l-0.002 0.001 3.414-1.621 0.003 1.036-2.229 0.939c-0.117 0.050-0.197 0.163-0.197 0.295 0 0.177 0.143 0.32 0.32 0.32 0.045 0 0.088-0.009 0.128-0.026l-0.002 0.001 1.982-0.835 0.028 12.617c-0.001 0.009-0.096 0.742-0.449 1.412l-0.892-1.099c-0.059-0.074-0.149-0.122-0.251-0.122h-0c-0 0-0 0-0 0-0.177 0-0.32 0.143-0.32 0.32 0 0.078 0.028 0.15 0.075 0.205l-0-0 1.011 1.246c-0.147 0.16-0.317 0.298-0.517 0.392-0.010 0.005-0.398 0.108-0.911 0.163-0.069 0.007-0.164 0.013-0.239 0.019l-0.546-1.198c-0.051-0.114-0.163-0.192-0.293-0.192-0.005 0-0.009 0-0.014 0l0.001-0c-0.171 0.007-0.307 0.148-0.307 0.32 0 0.050 0.011 0.097 0.031 0.138l-0.001-0.002 0.449 0.986c-0.322 0.019-0.671 0.036-1.047 0.049-0.024 0.001-0.052 0.001-0.076 0.002l-0.789-1.18c-0.058-0.089-0.157-0.146-0.269-0.146-0 0-0.001 0-0.001 0h0c-0.176 0-0.319 0.144-0.319 0.32 0 0.068 0.021 0.131 0.057 0.183l-0.001-0.001 0.564 0.843c-1.402 0.030-3.032 0.027-4.698-0.003-0.79-0.014-1.58-0.038-2.361-0.063l0.113-1.278c0.001-0.010 0.002-0.021 0.002-0.033 0-0.177-0.143-0.32-0.32-0.32-0.003 0-0.006 0-0.009 0h0c-0.165 0.005-0.298 0.133-0.311 0.295l-0 0.001-0.116 1.317c-0.302-0.011-0.56-0.025-0.852-0.037l0.261-0.789c0.011-0.031 0.018-0.067 0.018-0.105 0-0.176-0.142-0.319-0.318-0.32h-0c-0.001 0-0.001 0-0.002 0-0.142 0-0.263 0.093-0.305 0.222l-0.001 0.002-0.318 0.961c-0.307-0.014-0.635-0.025-0.925-0.040l0.24-0.814c0.009-0.028 0.014-0.061 0.014-0.095 0-0.177-0.143-0.32-0.32-0.32-0.003 0-0.006 0-0.009 0h0c-0.142 0.004-0.261 0.101-0.299 0.231l-0.001 0.002-0.283 0.96c-0.349-0.019-0.64-0.039-0.948-0.059l0.563-1.204c0.020-0.041 0.032-0.089 0.032-0.14 0-0.174-0.139-0.316-0.313-0.32h-0c-0.002-0-0.004-0-0.007-0-0.129 0-0.241 0.077-0.291 0.187l-0.001 0.002-0.67 1.432c-0.336-0.025-0.651-0.049-0.902-0.074l0.357-0.395c0.053-0.057 0.086-0.134 0.086-0.218 0-0.174-0.14-0.316-0.313-0.32h-0c-0.002-0-0.005-0-0.007-0-0.095 0-0.181 0.042-0.24 0.108l-0 0-0.652 0.72c-0.389-0.086-0.623-0.259-0.809-0.508-0.205-0.273-0.339-0.656-0.408-1.058-0.137-0.804-0.009-1.606-0.009-1.606 0.006-0.032 0.009-0.069 0.009-0.106 0-0.004-0-0.008-0-0.012v0.001s-0.035-2.109-0.060-4.593l1.424-0.576c0.12-0.048 0.204-0.163 0.204-0.298 0-0.177-0.143-0.32-0.32-0.32-0.003 0-0.006 0-0.009 0h0c-0.042 0.001-0.081 0.010-0.117 0.026l0.002-0.001-1.191 0.481c-0.004-0.48-0.011-0.836-0.014-1.336-0.003-0.544-0.002-1.090-0.003-1.636l1.213 0.842c0.052 0.038 0.117 0.061 0.188 0.061 0.177 0 0.32-0.143 0.32-0.32 0-0.111-0.056-0.208-0.141-0.266l-0.001-0.001-1.58-1.097c0.001-0.423 0.006-0.805 0.009-1.209l1.691 1.456c0.056 0.051 0.131 0.082 0.213 0.082 0.177 0 0.32-0.143 0.32-0.32 0-0.099-0.045-0.187-0.115-0.246l-0.001-0-2.102-1.809c0.002-0.171 0.002-0.368 0.005-0.532 0.025-1.488 0.082-2.713 0.151-3.148 0.141-0.895 0.563-1.275 0.972-1.508 0.408-0.233 0.758-0.26 0.76-0.26l5.388-0.099 0.571 2.619c0.028 0.15 0.158 0.263 0.315 0.263 0.177 0 0.32-0.143 0.32-0.32 0-0.028-0.004-0.055-0.010-0.081l0.001 0.002-0.544-2.494 0.875-0.016 0.142 1.499c0.014 0.165 0.152 0.293 0.319 0.293 0.177 0 0.32-0.143 0.32-0.32 0-0.012-0.001-0.024-0.002-0.035l0 0.001-0.137-1.45 3.544-0.065-0.219 1.297c-0.003 0.015-0.004 0.033-0.004 0.051 0 0.177 0.143 0.32 0.32 0.32 0.157 0 0.288-0.113 0.315-0.263l0-0.002 0.238-1.415 0.934-0.017-0.207 0.914c-0.007 0.025-0.011 0.053-0.011 0.082 0 0.177 0.143 0.32 0.32 0.32 0.156 0 0.285-0.111 0.314-0.258l0-0.002 0.242-1.067 2.899-0.053zM9.869 7.012c-0.040 0.007-0.076 0.022-0.107 0.043l0.001-0.001c-0.133 0.086-0.172 0.264-0.086 0.397s0.265 0.172 0.398 0.086c0.133-0.086 0.172-0.264 0.086-0.397-0.052-0.080-0.141-0.132-0.242-0.132-0.018 0-0.035 0.002-0.051 0.005l0.002-0zM10.858 9.346c-0.040 0.007-0.076 0.022-0.107 0.043l0.001-0.001c-0.133 0.086-0.172 0.264-0.086 0.398s0.264 0.172 0.398 0.086c0.133-0.086 0.172-0.264 0.086-0.398-0.065-0.1-0.181-0.147-0.292-0.127zM7.631 9.373c-0.040 0.007-0.076 0.022-0.107 0.043l0.001-0.001c-0.133 0.086-0.172 0.264-0.086 0.398s0.264 0.172 0.397 0.086c0.133-0.086 0.172-0.265 0.086-0.398-0.065-0.1-0.181-0.147-0.292-0.128zM12.19 10.582c-0.345 0.035-0.768 0.219-1.155 0.53-0.193 0.155-0.372 0.345-0.491 0.581s-0.17 0.526-0.094 0.819c0.253 0.98 1.056 1.449 1.868 1.436 0.872-0.014 1.656-0.778 1.519-1.834-0.135-1.052-0.97-1.599-1.647-1.531zM12.254 11.219c0.242-0.024 0.853 0.236 0.948 0.976 0.095 0.735-0.36 1.104-0.894 1.112-0.595 0.009-1.048-0.219-1.239-0.956-0.035-0.136-0.017-0.246 0.046-0.371s0.178-0.255 0.32-0.369c0.285-0.229 0.704-0.381 0.819-0.393zM19.821 14.165c-0.634 0.019-1.234 0.31-1.705 0.596-0.257 0.156-0.277 0.196-0.438 0.321l-0.054-0.541c-0.017-0.163-0.153-0.288-0.318-0.288-0.004 0-0.007 0-0.011 0h0.001l-2.126 0.070c-0.169 0.006-0.304 0.141-0.309 0.309v0.001l-0.247 7.809c-0 0.003-0 0.007-0 0.010 0 0.174 0.139 0.316 0.312 0.32h0l2.625 0.064c0.002 0 0.005 0 0.008 0 0.177 0 0.32-0.143 0.32-0.32 0-0.003-0-0.006-0-0.009v0s-0.025-1.002-0.041-2.085c-0.008-0.541-0.014-1.103-0.014-1.568s0.010-0.85 0.023-0.971c0.061-0.582 0.477-0.897 0.938-0.967s0.908 0.103 1.084 0.616c0.021 0.061 0.080 0.481 0.107 0.972s0.042 1.090 0.050 1.669c0.016 1.158 0.003 2.235 0.003 2.235 0 0.001-0 0.002-0 0.004 0 0.177 0.143 0.32 0.32 0.32 0.001 0 0.001 0 0.002 0l2.294-0.011c0.175-0.001 0.316-0.142 0.318-0.316v-0s0.014-1.095 0.005-2.353c-0.009-1.258-0.037-2.659-0.139-3.362-0.21-1.442-1.392-2.38-2.734-2.516-0.063-0.007-0.135-0.010-0.209-0.010-0.023 0-0.046 0-0.068 0.001l0.003-0zM11.061 14.243c-0.003-0-0.007-0-0.011-0-0.175 0-0.317 0.141-0.32 0.315v0l-0.131 8.078c-0 0.002-0 0.004-0 0.006 0 0.177 0.143 0.32 0.32 0.32 0.010 0 0.020-0 0.029-0.001l-0.001 0 2.596-0.228c0.165-0.015 0.293-0.152 0.293-0.319 0-0.003-0-0.005-0-0.008v0l-0.178-7.776c-0.004-0.17-0.14-0.307-0.309-0.313h-0.001l-2.288-0.075zM19.843 14.806c0.018-0.001 0.038-0.001 0.059-0.001 0.045 0 0.090 0.002 0.134 0.007l-0.006-0c1.094 0.111 1.999 0.824 2.166 1.971 0.086 0.592 0.124 2.024 0.133 3.274 0.008 1.083-0.002 1.787-0.005 2.026l-1.656 0.008c0.002-0.25 0.011-0.927-0.003-1.926-0.008-0.584-0.023-1.189-0.051-1.695s-0.048-0.875-0.141-1.145c-0.277-0.805-1.076-1.148-1.785-1.041s-1.387 0.662-1.479 1.533c-0.022 0.205-0.026 0.567-0.026 1.038s0.006 1.035 0.014 1.579c0.014 0.912 0.029 1.504 0.035 1.755l-1.969-0.047 0.228-7.188 1.526-0.051 0.079 0.798c0.017 0.163 0.153 0.288 0.318 0.288 0.083 0 0.159-0.032 0.216-0.084l-0 0s0.336-0.305 0.817-0.598c0.421-0.256 0.945-0.482 1.394-0.502zM11.365 14.894l1.66 0.054 0.164 7.174-1.944 0.17 0.12-7.398z"></path>
    </symbol>
    <symbol id="icon-github" viewBox="0 0 32 32">
      <path d="M15.5 1c-7.994 0-14.5 6.506-14.5 14.5 0 6.324 4.072 11.713 9.729 13.69 0.080 0.057 0.176 0.092 0.277 0.094 1.341 0.454 2.885 0.717 4.491 0.717 0.001 0 0.002 0 0.003 0h-0c7.994 0 14.5-6.506 14.5-14.5s-6.506-14.5-14.5-14.5zM15.5 2c7.443 0 13.5 6.057 13.5 13.5 0 5.83-3.715 10.807-8.9 12.693-0.055-0.162-0.1-0.402-0.1-0.566v-2.627c0-1.047-0.512-2.188-1.016-2.953 2.775-0.469 5.947-1.908 5.947-7.281 0-1.473-0.461-2.771-1.369-3.865 0.199-0.656 0.445-2.041-0.242-3.779-0.055-0.139-0.17-0.246-0.313-0.293-0.141-0.043-1.424-0.377-4.088 1.371-1.084-0.279-2.23-0.424-3.42-0.428-1.184 0.004-2.332 0.148-3.412 0.428-2.664-1.75-3.951-1.416-4.090-1.371-0.143 0.047-0.258 0.154-0.313 0.293-0.689 1.74-0.443 3.123-0.24 3.779-0.912 1.094-1.373 2.393-1.373 3.865 0 5.324 3.115 6.791 5.867 7.279-0.346 0.438-0.709 1.004-0.869 1.58-0.711 0.197-2.168 0.203-3.146-1.473-0.035-0.064-0.891-1.584-2.578-1.701-0.268 0.002-0.947 0.045-1.111 0.564-0.182 0.576 0.455 1.014 0.729 1.199 0.018 0.012 0.045 0.027 0.063 0.037 0.031 0.016 0.76 0.398 1.303 1.766 0.113 0.357 1.107 3.051 4.676 2.576 0.002 0.395 0 0.594-0.004 0.752v0.279c0 0.162-0.049 0.406-0.104 0.564-5.186-1.887-8.896-6.863-8.896-12.69 0-7.443 6.057-13.5 13.5-13.5zM15.379 3.502c-1.949 0.021-3.877 0.535-5.574 1.506-0.24 0.135-0.324 0.441-0.188 0.68 0.087 0.153 0.249 0.254 0.434 0.254 0 0 0.001 0 0.001 0h-0c0.084 0 0.168-0.021 0.246-0.066 2.068-1.18 4.51-1.621 6.871-1.242 0.271 0.045 0.527-0.141 0.572-0.414 0.043-0.273-0.143-0.529-0.414-0.574-0.543-0.091-1.169-0.143-1.808-0.143-0.050 0-0.099 0-0.149 0.001l0.008-0zM19.328 4.193c-0.193 0.008-0.375 0.131-0.445 0.324-0.020 0.052-0.032 0.113-0.032 0.177 0 0.213 0.134 0.395 0.322 0.467l0.003 0.001c0.355 0.133 0.707 0.285 1.051 0.457 0.065 0.034 0.143 0.055 0.225 0.055v0c0.182 0 0.357-0.1 0.447-0.275 0.123-0.244 0.023-0.547-0.223-0.672-0.303-0.158-0.682-0.327-1.071-0.475l-0.079-0.026c-0.053-0.020-0.115-0.032-0.18-0.032-0.006 0-0.012 0-0.018 0l0.001-0zM22.492 7.773c0.537 1.58 0.17 2.725 0.037 3.049-0.023 0.056-0.036 0.12-0.036 0.188 0 0.131 0.050 0.25 0.132 0.34l-0-0c0.865 0.947 1.305 2.096 1.305 3.416 0 5.068-3.004 6.086-5.945 6.412-0.2 0.022-0.362 0.16-0.421 0.344l-0.001 0.004c-0.061 0.189 0 0.396 0.15 0.527 0.395 0.338 1.287 1.805 1.287 2.947v2.627c0 0.010 0.002 0.445 0.145 0.869-1.16 0.326-2.381 0.504-3.645 0.504-1.266 0-2.488-0.18-3.65-0.506 0.145-0.426 0.148-0.861 0.148-0.869l0.002-0.268c0.002-0.227 0.006-0.533 0-1.359-0.002-0.157-0.074-0.296-0.187-0.388l-0.001-0.001c-0.117-0.094-0.271-0.129-0.42-0.098-3.357 0.732-4.084-1.691-4.111-1.793-0.006-0.018-0.012-0.033-0.018-0.051-0.48-1.219-1.113-1.84-1.49-2.121 0.814 0.287 1.269 1.082 1.281 1.1 1.322 2.264 3.506 2.322 4.648 1.811 0.155-0.070 0.266-0.213 0.291-0.384l0-0.003c0.102-0.715 0.887-1.66 1.283-2.008 0.148-0.131 0.207-0.338 0.146-0.525-0.059-0.189-0.223-0.326-0.418-0.348-2.934-0.334-5.934-1.359-5.934-6.424 0-1.318 0.439-2.469 1.309-3.416 0.082-0.088 0.132-0.207 0.132-0.337 0-0.069-0.014-0.134-0.039-0.193l0.001 0.003c-0.133-0.324-0.502-1.465 0.033-3.047 0.426 0.014 1.463 0.195 3.209 1.381 0.079 0.054 0.177 0.086 0.283 0.086 0.047 0 0.093-0.007 0.137-0.019l-0.004 0.001c1.045-0.291 2.211-0.447 3.367-0.453 1.16 0.006 2.326 0.162 3.373 0.453 0.141 0.039 0.293 0.014 0.414-0.068 1.756-1.191 2.793-1.369 3.205-1.383zM10.688 17.197c-0.195-0.023-0.393 0.066-0.494 0.246l-0.5 0.865c-0.042 0.072-0.067 0.159-0.067 0.251 0 0.184 0.099 0.344 0.247 0.431l0.002 0.001c0.071 0.042 0.157 0.066 0.249 0.066 0 0 0.001 0 0.001 0h-0c0 0 0 0 0 0 0.184 0 0.344-0.1 0.43-0.248l0.001-0.002 0.5-0.865c0.139-0.238 0.059-0.545-0.182-0.684-0.060-0.033-0.123-0.055-0.188-0.063zM20.313 17.197c-0.070 0.009-0.133 0.031-0.19 0.064l0.002-0.001c-0.24 0.139-0.32 0.445-0.182 0.686l0.5 0.865c0.087 0.15 0.248 0.25 0.432 0.25 0 0 0 0 0 0v0c0.086 0 0.172-0.023 0.25-0.068 0.15-0.087 0.25-0.248 0.25-0.431 0-0.092-0.025-0.179-0.069-0.253l0.001 0.002-0.5-0.865c-0.088-0.151-0.25-0.252-0.434-0.252-0.021 0-0.042 0.001-0.062 0.004l0.002-0zM18.094 18.172c-0.021-0.003-0.045-0.005-0.069-0.005-0.047 0-0.092 0.007-0.135 0.020l0.003-0.001c-0.266 0.070-0.424 0.344-0.354 0.611l0.26 0.967c0.059 0.214 0.253 0.369 0.482 0.369v0c0.047-0 0.092-0.006 0.135-0.016l-0.004 0.001c0.266-0.072 0.426-0.346 0.354-0.613l-0.258-0.965c-0.053-0.193-0.214-0.337-0.411-0.367l-0.003-0zM12.908 18.172c-0.201 0.029-0.362 0.174-0.415 0.364l-0.001 0.004-0.258 0.967c-0.072 0.266 0.088 0.539 0.354 0.611 0.043 0.012 0.086 0.016 0.131 0.016 0.219 0 0.422-0.146 0.482-0.369l0.26-0.967c0.070-0.266-0.088-0.541-0.354-0.611-0.068-0.020-0.135-0.021-0.199-0.014zM15.5 18.5c-0 0-0.001 0-0.002 0-0.275 0-0.498 0.223-0.498 0.498 0 0.001 0 0.001 0 0.002v-0 1c0 0.277 0.223 0.5 0.5 0.5 0 0 0.001 0 0.002 0 0.275 0 0.498-0.223 0.498-0.498 0-0.001 0-0.001 0-0.002v0-1c0-0 0-0.001 0-0.002 0-0.275-0.223-0.498-0.498-0.498-0.001 0-0.001 0-0.002 0h0z"></path>
    </symbol>
  </defs>
</svg>
