<svg xmlns="http://www.w3.org/2000/svg" aria-hidden="true" style="position:absolute;width:0;height:0;overflow:hidden">
  <defs>
    <symbol id="icon-arrow-left" viewBox="0 0 32 32">
      <path d="M9.706 10.293a1.002 1.002 0 0 1 0 1.414L6.413 15H28a.997.997 0 0 1 1 1 1 1 0 0 1-1 1H6.413l3.293 3.293a1.002 1.002 0 0 1 .025 1.439.992.992 0 0 1-.725.293 1.001 1.001 0 0 1-.714-.318l-5-5a1.002 1.002 0 0 1 0-1.414l5-5a1.002 1.002 0 0 1 1.414 0z"/>
    </symbol>
    <symbol id="icon-arrow-right-on-rectangle" viewBox="0 0 32 32">
      <path d="M10 3.333c-.972 0-1.906.385-2.594 1.073S6.333 6.028 6.333 7v18A3.665 3.665 0 0 0 10 28.667h8A3.667 3.667 0 0 0 21.667 25v-5a.667.667 0 1 0-1.334 0v5A2.331 2.331 0 0 1 18 27.333h-8A2.331 2.331 0 0 1 7.667 25V7A2.331 2.331 0 0 1 10 4.667h8A2.331 2.331 0 0 1 20.333 7v5a.667.667 0 1 0 1.334 0V7A3.667 3.667 0 0 0 18 3.333zm14.529 8.196a.663.663 0 0 0 0 .942l2.862 2.862H12a.667.667 0 1 0 0 1.334h15.391l-2.862 2.862a.663.663 0 0 0 0 .942.663.663 0 0 0 .942 0l4-4a.658.658 0 0 0 .144-.212l.002-.004a.662.662 0 0 0 .049-.252v-.006a.657.657 0 0 0-.051-.256l.002.004a.67.67 0 0 0-.146-.216l-4-4a.663.663 0 0 0-.942 0z"/>
    </symbol>
    <symbol id="icon-arrow-up" viewBox="0 0 32 32">
      <path d="M16 3.333a.665.665 0 0 0-.471.195l-6 6a.663.663 0 0 0 0 .942.663.663 0 0 0 .942 0l4.862-4.862v16.391a.667.667 0 1 0 1.334 0V5.608l4.862 4.862a.663.663 0 0 0 .942 0 .663.663 0 0 0 0-.942l-6-6A.663.663 0 0 0 16 3.333zm-12 18a.667.667 0 0 0-.667.667v3c0 .972.385 1.906 1.073 2.594S6.028 28.667 7 28.667h18A3.667 3.667 0 0 0 28.667 25v-3a.667.667 0 1 0-1.334 0v3A2.331 2.331 0 0 1 25 27.333H7A2.331 2.331 0 0 1 4.667 25v-3A.667.667 0 0 0 4 21.333z"/>
    </symbol>
    <symbol id="icon-calendar-days" viewBox="0 0 32 32">
      <path d="M9 3.2a.8.8 0 0 0-.8.8v2.2H7A3.798 3.798 0 0 0 3.2 10v15A3.8 3.8 0 0 0 7 28.801h18A3.801 3.801 0 0 0 28.801 25V10A3.801 3.801 0 0 0 25 6.2h-1.2V4a.8.8 0 1 0-1.6 0v2.2H9.8V4a.8.8 0 0 0-.8-.8zM7 7.8h18a2.199 2.199 0 0 1 2.2 2.2v1.988c-.646-.47-1.392-.787-2.2-.787H7c-.808 0-1.554.318-2.2.787V10A2.199 2.199 0 0 1 7 7.8zm0 5h18a2.199 2.199 0 0 1 2.2 2.2v10a2.199 2.199 0 0 1-2.2 2.2H7A2.199 2.199 0 0 1 4.8 25V15A2.199 2.199 0 0 1 7 12.8zm9 3.4a.8.8 0 0 0-.8.8v.011a.8.8 0 0 0 .8.8h.011a.8.8 0 0 0 .8-.8V17a.8.8 0 0 0-.8-.8zm3 0a.8.8 0 0 0-.8.8v.011a.8.8 0 0 0 .8.8h.011a.8.8 0 0 0 .8-.8V17a.8.8 0 0 0-.8-.8zm3 0a.8.8 0 0 0-.8.8v.011a.8.8 0 0 0 .8.8h.011a.8.8 0 0 0 .8-.8V17a.8.8 0 0 0-.8-.8zm-5.994.016.788.791-.788.788-.791-.788zm3 0 .788.791-.788.788-.791-.788zm3 0 .788.791-.788.788-.791-.788zM10 19.2a.8.8 0 0 0-.8.8v.011a.8.8 0 0 0 .8.8h.011a.8.8 0 0 0 .8-.8V20a.8.8 0 0 0-.8-.8zm3 0a.8.8 0 0 0-.8.8v.011a.8.8 0 0 0 .8.8h.011a.8.8 0 0 0 .8-.8V20a.8.8 0 0 0-.8-.8zm3 0a.8.8 0 0 0-.8.8v.011a.8.8 0 0 0 .8.8h.011a.8.8 0 0 0 .8-.8V20a.8.8 0 0 0-.8-.8zm3 0a.8.8 0 0 0-.8.8v.011a.8.8 0 0 0 .8.8h.011a.8.8 0 0 0 .8-.8V20a.8.8 0 0 0-.8-.8zm3 0a.8.8 0 0 0-.8.8v.011a.8.8 0 0 0 .8.8h.011a.8.8 0 0 0 .8-.8V20a.8.8 0 0 0-.8-.8zm-11.994.016.787.791-.787.788-.791-.788zm3 0 .787.791-.787.788-.791-.788zm3 0 .788.791-.788.788-.791-.788zm3 0 .788.791-.788.788-.791-.788zm3 0 .788.791-.788.788-.791-.788zM10 22.2a.8.8 0 0 0-.8.8v.011a.8.8 0 0 0 .8.8h.011a.8.8 0 0 0 .8-.8V23a.8.8 0 0 0-.8-.8zm3 0a.8.8 0 0 0-.8.8v.011a.8.8 0 0 0 .8.8h.011a.8.8 0 0 0 .8-.8V23a.8.8 0 0 0-.8-.8zm3 0a.8.8 0 0 0-.8.8v.011a.8.8 0 0 0 .8.8h.011a.8.8 0 0 0 .8-.8V23a.8.8 0 0 0-.8-.8zm3 0a.8.8 0 0 0-.8.8v.011a.8.8 0 0 0 .8.8h.011a.8.8 0 0 0 .8-.8V23a.8.8 0 0 0-.8-.8zm-8.994.016.787.791-.787.788-.791-.788zm3 0 .787.791-.787.788-.791-.788zm3 0 .788.791-.788.788-.791-.788zm3 0 .788.791-.788.788-.791-.788z"/>
    </symbol>
    <symbol id="icon-chevron-double-up" viewBox="0 0 32 32">
      <path d="M16.706 21.707a1.002 1.002 0 0 1-1.414 0l-10-10a.996.996 0 0 1 .025-1.388 1.002 1.002 0 0 1 1.388-.025l9.293 9.293 9.293-9.293a1.013 1.013 0 0 1 .714-.318.993.993 0 0 1 .725.293.992.992 0 0 1 .293.725 1.001 1.001 0 0 1-.318.714l-10 10z"/>
    </symbol>
    <symbol id="icon-cog-6-tooth" viewBox="0 0 32 32">
      <path d="M14.273 3.333a2.173 2.173 0 0 0-2.138 1.81l-.286 1.708c-.045.272-.237.527-.523.685a8.888 8.888 0 0 0-.315.182c-.281.17-.596.209-.857.112l-1.62-.607a2.17 2.17 0 0 0-2.638.946l-1.729 2.997h-.002a2.17 2.17 0 0 0 .502 2.753l1.339 1.104c.212.174.337.469.331.794-.002.122-.002.243 0 .365.006.327-.12.621-.331.794L4.667 18.08a2.158 2.158 0 0 0-.755 1.284v.002a2.165 2.165 0 0 0 .255 1.469l1.729 2.995v.002c.257.444.663.78 1.146.953s1.01.17 1.49-.01l1.622-.607c.261-.097.576-.058.857.112.104.063.209.124.315.182.286.159.478.413.523.685l.284 1.708a2.173 2.173 0 0 0 2.138 1.81h3.458a2.175 2.175 0 0 0 2.138-1.813l.284-1.706c.046-.274.238-.527.523-.685h.002c.106-.059.21-.12.313-.182.283-.17.598-.209.857-.112l1.622.607a2.17 2.17 0 0 0 2.638-.946l1.729-2.995v-.002a2.175 2.175 0 0 0-.5-2.753l-1.339-1.104h-.002c-.212-.174-.334-.469-.328-.794.002-.122.002-.243 0-.365-.006-.327.116-.62.328-.794h.002l1.336-1.104a2.17 2.17 0 0 0 .758-1.284v-.002a2.164 2.164 0 0 0-.255-1.469l-1.729-2.995v-.002a2.163 2.163 0 0 0-2.638-.943l-1.622.607c-.258.097-.576.059-.854-.109v-.002c-.101-.061-.205-.124-.318-.185h-.003c-.283-.159-.475-.411-.521-.682l-.284-1.708a2.173 2.173 0 0 0-2.138-1.81zm0 1.334h3.456c.412 0 .756.291.823.695l.284 1.708v.002c.122.724.597 1.301 1.195 1.633l.001.001.004.002c.084.046.172.097.266.154.585.354 1.324.477 2.013.219l1.622-.609c.185-.07.387-.072.573-.005s.344.199.443.37l1.727 2.995c.099.171.134.371.099.565s-.139.369-.292.495l-1.339 1.104c-.567.466-.828 1.167-.815 1.849.002.105.002.21 0 .315-.013.683.248 1.381.815 1.846l1.339 1.104a.825.825 0 0 1 .195 1.057l-1.732 2.997a.83.83 0 0 1-1.013.364l-1.622-.609c-.688-.258-1.427-.134-2.013.219l-.003.003c-.089.054-.18.106-.271.156-.598.33-1.071.907-1.193 1.63v.002l-.284 1.706a.828.828 0 0 1-.823.698H14.27a.828.828 0 0 1-.823-.695l-.284-1.708c-.12-.725-.595-1.304-1.193-1.635a7.301 7.301 0 0 1-.271-.156c-.585-.353-1.324-.476-2.013-.219l-1.625.609a.836.836 0 0 1-1.013-.364L5.319 20.17c-.099-.171-.134-.371-.099-.565s.139-.369.292-.495l1.339-1.102c.567-.466.83-1.168.818-1.852a8.27 8.27 0 0 1 0-.315c.013-.682-.251-1.381-.818-1.846l-1.339-1.104a.836.836 0 0 1-.193-1.06l1.729-2.995a.839.839 0 0 1 1.016-.364l1.62.609h.002c.689.257 1.428.134 2.013-.219l.003-.003c.087-.053.178-.106.268-.156.599-.33 1.073-.908 1.193-1.633l.286-1.708a.827.827 0 0 1 .823-.695z"/>
      <path d="M16 11.333a4.666 4.666 0 1 0 .002 9.333A4.666 4.666 0 0 0 16 11.333zm0 1.334a3.336 3.336 0 0 1 3.334 3.334A3.336 3.336 0 0 1 16 19.335a3.332 3.332 0 0 1-3.334-3.334A3.332 3.332 0 0 1 16 12.667z"/>
    </symbol>
    <symbol id="icon-eye" viewBox="0 0 32 32">
      <path d="M16 5.333c-6.475 0-11.979 4.203-13.917 10.034-.137.413-.137.86 0 1.273C4.025 22.468 9.528 26.666 16 26.666c6.474 0 11.979-4.201 13.917-10.031v-.003a2.002 2.002 0 0 0 0-1.273v-.003C27.974 9.529 22.472 5.333 16 5.333zm0 1.334c5.896 0 10.887 3.82 12.651 9.115l.003.003a.658.658 0 0 1-.003.427v.002c-1.759 5.296-6.753 9.12-12.651 9.12-5.896 0-10.889-3.82-12.654-9.115a.673.673 0 0 1 0-.43v-.002C5.107 10.49 10.101 6.667 16 6.667z"/>
      <path d="M16 11.333a4.666 4.666 0 1 0 .002 9.333A4.666 4.666 0 0 0 16 11.333zm0 1.334a3.336 3.336 0 0 1 3.334 3.334A3.336 3.336 0 0 1 16 19.335a3.332 3.332 0 0 1-3.334-3.334A3.332 3.332 0 0 1 16 12.667z"/>
    </symbol>
    <symbol id="icon-eye-slash" viewBox="0 0 32 32">
      <path d="M4 3.333a.663.663 0 0 0-.471 1.137l9.172 9.172h.002v.002L27.529 28.47a.663.663 0 0 0 .942 0 .663.663 0 0 0 0-.942l-3.826-3.826c2.545-1.886 4.503-4.467 5.414-7.516a.662.662 0 0 0-.001-.385l.001.005c-1.805-6.059-7.423-10.474-14.06-10.474-2.676-.004-5.266.793-7.549 2.174L4.471 3.527A.663.663 0 0 0 4 3.332zm12 3.334c5.969 0 10.982 3.932 12.688 9.328-.87 2.751-2.633 5.099-4.971 6.779l-4.036-4.039c.228-.307.486-.593.633-.948a4.678 4.678 0 0 0 0-3.57v-.002a4.656 4.656 0 0 0-2.526-2.523 4.659 4.659 0 0 0-3.572 0c-.355.147-.641.405-.948.633L9.445 8.502c2.005-1.144 4.239-1.837 6.557-1.833zM5.253 10.299a.67.67 0 0 0-.455.233l-.001.001a14.636 14.636 0 0 0-2.857 5.276.662.662 0 0 0 .001.385l-.001-.005C3.745 22.25 9.363 26.666 16 26.666c1.386 0 2.726-.193 3.997-.552a.667.667 0 0 0 .46-.828l.001.005a.667.667 0 0 0-.828-.46l.005-.001a13.358 13.358 0 0 1-3.635.503c-5.966 0-10.977-3.928-12.685-9.323.532-1.686 1.357-3.265 2.5-4.615a.663.663 0 0 0-.077-.939l-.001-.001a.663.663 0 0 0-.431-.158l-.055.002h.002zM16 12.667a3.344 3.344 0 0 1 3.081 2.057c.168.405.253.838.253 1.276s-.085.872-.253 1.276c-.08.193-.232.342-.346.516l-4.526-4.526c.174-.114.323-.264.516-.344a3.325 3.325 0 0 1 1.276-.255z"/>
    </symbol>
    <symbol id="icon-minus-small" viewBox="0 0 32 32">
      <path d="M7 16a.997.997 0 0 1 1-1h16a.997.997 0 0 1 1 1 .997.997 0 0 1-1 1H8a.997.997 0 0 1-1-1z"/>
    </symbol>
    <symbol id="icon-pencil" viewBox="0 0 32 32">
      <path d="M26.5 2.333c-.84 0-1.646.333-2.24.927L10.101 17.419a6.653 6.653 0 0 0-1.674 2.81L7.362 23.81a.667.667 0 0 0 .833.828l-.005.001 3.581-1.065a6.674 6.674 0 0 0 2.81-1.674L28.74 7.741a3.168 3.168 0 0 0-2.24-5.407zm0 1.334a1.834 1.834 0 0 1 1.297 3.13l-1.779 1.779-2.594-2.594 1.779-1.779c.344-.344.81-.536 1.297-.536zm-4.018 3.257 2.594 2.594-11.438 11.438a5.336 5.336 0 0 1-2.247 1.339l-2.401.716.716-2.401a5.32 5.32 0 0 1 1.339-2.247zM7 7.333c-.972 0-1.906.385-2.594 1.073S3.333 10.028 3.333 11v14c0 .972.385 1.906 1.073 2.594S6.028 28.667 7 28.667h14A3.667 3.667 0 0 0 24.667 25v-6.333a.667.667 0 1 0-1.334 0V25A2.331 2.331 0 0 1 21 27.333H7A2.331 2.331 0 0 1 4.667 25V11A2.331 2.331 0 0 1 7 8.667h6.333a.667.667 0 1 0 0-1.334z"/>
    </symbol>
    <symbol id="icon-plus-circle" viewBox="0 0 32 32">
      <path d="M16 3.333A12.67 12.67 0 0 0 4.297 20.846a12.674 12.674 0 0 0 11.702 7.82 12.654 12.654 0 0 0 8.955-3.711A12.67 12.67 0 0 0 28.665 16 12.67 12.67 0 0 0 15.998 3.333zm0 1.334a11.334 11.334 0 0 1 0 22.666 11.32 11.32 0 0 1-8.013-3.32A11.331 11.331 0 0 1 4.667 16 11.334 11.334 0 0 1 16 4.667zm0 6.666a.667.667 0 0 0-.667.667v3.333H12a.667.667 0 1 0 0 1.334h3.333V20a.667.667 0 1 0 1.334 0v-3.333H20a.667.667 0 1 0 0-1.334h-3.333V12a.667.667 0 0 0-.667-.667z"/>
    </symbol>
    <symbol id="icon-plus-small" viewBox="0 0 32 32">
      <path d="M16 7.333a.667.667 0 0 0-.667.667v7.333H8a.667.667 0 1 0 0 1.334h7.333V24a.667.667 0 1 0 1.334 0v-7.333H24a.667.667 0 1 0 0-1.334h-7.333V8A.667.667 0 0 0 16 7.333z"/>
    </symbol>
    <symbol id="icon-presantation-chart-bar" viewBox="0 0 32 32">
      <path d="M3 3.2a.8.8 0 1 0 0 1.6h1.2V19A3.8 3.8 0 0 0 8 22.801h1.889l-.981 2.947-.667 2a.8.8 0 0 0 .501 1.01l.006.002a.8.8 0 0 0 1.01-.501l.002-.006.484-1.453h11.513l.484 1.453a.801.801 0 0 0 1.018.504l-.006.002a.801.801 0 0 0 .504-1.018l.002.006-.667-2-.981-2.947H24a3.801 3.801 0 0 0 3.801-3.801v-14.2h1.2a.8.8 0 1 0 0-1.6h-24zm2.8 1.6h20.4V19a2.199 2.199 0 0 1-2.2 2.2H8A2.199 2.199 0 0 1 5.8 19zM20 8.2a.8.8 0 0 0-.8.8v8a.8.8 0 1 0 1.6 0V9a.8.8 0 0 0-.8-.8zm-4 3a.8.8 0 0 0-.8.8v5a.8.8 0 1 0 1.6 0v-5a.8.8 0 0 0-.8-.8zm-4 3a.8.8 0 0 0-.8.8v2a.8.8 0 1 0 1.6 0v-2a.8.8 0 0 0-.8-.8zm-.423 8.6h8.847l.8 2.4H10.777z"/>
    </symbol>
    <symbol id="icon-trash" viewBox="0 0 32 32">
      <path d="M13.766 2.367c-1.933.061-3.432 1.687-3.432 3.602v.628a65.41 65.41 0 0 0-4.021.458l-.047.005h-.003c-.461.069-.92.145-1.378.224a.669.669 0 0 0-.542.775l-.001-.004a.669.669 0 0 0 .775.542l-.004.001c.212-.037.425-.067.638-.102l1.37 17.786a3.666 3.666 0 0 0 3.656 3.386H21.22a3.667 3.667 0 0 0 3.656-3.386l1.37-17.786c.213.035.426.067.638.104a.668.668 0 0 0 .771-.54l.001-.004a.667.667 0 0 0-.537-.77l-.004-.001c-.458-.08-.917-.154-1.378-.224l-.049-.005a64.554 64.554 0 0 0-4.021-.458V5.97c0-1.916-1.5-3.541-3.432-3.602a69.365 69.365 0 0 0-4.469 0zm.041 1.334a68.203 68.203 0 0 1 4.385 0c1.214.038 2.141 1.038 2.141 2.268v.557a65.619 65.619 0 0 0-8.667 0v-.557c0-1.229.927-2.23 2.141-2.268zm-2.755 4.153a64.103 64.103 0 0 1 9.896 0 63.15 63.15 0 0 1 3.974.456L23.55 26.18a2.337 2.337 0 0 1-2.328 2.154H10.779a2.332 2.332 0 0 1-2.328-2.154L7.079 8.31a63.15 63.15 0 0 1 3.974-.456zm1.268 3.479a.667.667 0 0 0-.64.694v-.001l.461 12a.667.667 0 0 0 .666.641l.028-.001h-.001a.667.667 0 0 0 .641-.666l-.001-.028v.001l-.461-12a.667.667 0 0 0-.666-.641l-.028.001h.001zm7.36 0-.027-.001a.667.667 0 0 0-.666.64v.001l-.461 12-.001.027c0 .359.284.652.64.666h.001l.027.001a.667.667 0 0 0 .666-.64v-.001l.461-12 .001-.027a.667.667 0 0 0-.64-.666h-.001z"/>
    </symbol>
    <symbol id="icon-user" viewBox="0 0 32 32">
      <path d="M16 0C7.171 0 0 7.171 0 16s7.171 16 16 16 16-7.171 16-16S24.829 0 16 0zm0 1.333c8.108 0 14.667 6.559 14.667 14.667S24.108 30.667 16 30.667 1.333 24.108 1.333 16 7.892 1.333 16 1.333z"/>
      <path d="M16 4.667c-1.242 0-2.434.508-3.307 1.404s-1.359 2.104-1.359 3.365c0 1.26.486 2.471 1.359 3.367s2.065 1.404 3.307 1.404 2.434-.508 3.307-1.404 1.359-2.107 1.359-3.367c0-1.26-.486-2.469-1.359-3.365S17.242 4.667 16 4.667zM16 6c.88 0 1.724.357 2.352 1s.982 1.519.982 2.435-.355 1.794-.982 2.438c-.627.643-1.472 1-2.352 1s-1.724-.357-2.352-1c-.627-.643-.982-1.522-.982-2.438s.355-1.792.982-2.435S15.12 6 16 6zm0 10.143c-2.278 0-4.466.921-6.086 2.555S7.37 22.547 7.333 24.87v.011c0 .265.155.494.379.602l.004.002A19.403 19.403 0 0 0 16 27.334c2.86.004 5.686-.627 8.284-1.849a.668.668 0 0 0 .383-.603v-.012.001c-.037-2.323-.961-4.538-2.581-6.172S18.279 16.144 16 16.144zm0 1.334c1.92 0 3.764.773 5.138 2.159 1.266 1.277 1.964 2.997 2.102 4.807C20.948 25.444 18.494 26.004 16 26c-2.578 0-5.01-.582-7.24-1.557.138-1.811.836-3.53 2.102-4.807A7.231 7.231 0 0 1 16 17.477z"/>
    </symbol>
    <symbol id="icon-wrench-screendriver" viewBox="0 0 32 32">
      <path d="M22.35 2.231a6.808 6.808 0 0 0-5.517 3.907 6.806 6.806 0 0 0-.608 3.444c.091 1.074-.136 2.049-.633 2.758L10.8 7.548V6.001a.8.8 0 0 0-.386-.684l-.004-.002-5-3a.794.794 0 0 0-.976.12l-2 2a.797.797 0 0 0-.118.98l-.002-.004 3 5A.8.8 0 0 0 6 10.8h1.547l4.619 4.619-8.434 6.945a4.19 4.19 0 0 0-1.529 3.039 4.19 4.19 0 0 0 4.398 4.398 4.175 4.175 0 0 0 1.681-.444 4.18 4.18 0 0 0 1.356-1.086l5.647-6.856 7.15 7.15.009.009a4.335 4.335 0 0 0 7.352-3.08 4.34 4.34 0 0 0-1.22-3.052l-.009-.009-6.622-6.622c.167.003.313-.05.48-.036l-.003-.002a6.808 6.808 0 0 0 6.133-2.845 6.798 6.798 0 0 0 .647-6.728.802.802 0 0 0-1.295-.236L23.943 9.93c-.436-.16-.871-.337-1.202-.667s-.507-.766-.667-1.202l3.964-3.964a.798.798 0 0 0-.231-1.293l-.005-.002a6.807 6.807 0 0 0-3.45-.572zm.153 1.592c.453-.044.879.146 1.325.22l-3.291 3.291a.797.797 0 0 0-.213.751l-.001-.005a4.814 4.814 0 0 0 3.598 3.6.798.798 0 0 0 .747-.214l3.291-3.292c.074.445.262.872.219 1.325a5.197 5.197 0 0 1-5.62 4.683h-.004c-.841-.07-1.75-.042-2.619.217-.116.035-.198.156-.313.2h-.025.001v.016c-.605.237-1.212.519-1.661 1.063v.002L8.403 27.257l-.002.002a2.605 2.605 0 0 1-1.88.946 2.607 2.607 0 0 1-1.966-.757 2.599 2.599 0 0 1 .189-3.845l.002-.002 9.116-7.506v-.002l.003-.002 2.323-1.914.01-.003-.006.002.133-.111.002-.002c1.42-1.171 1.624-3.054 1.492-4.617a5.204 5.204 0 0 1 4.683-5.622zm-17.38.185L9.2 6.453v1.425c0 .221.09.421.234.566l5.056 5.058-1.084.895-4.963-4.963a.797.797 0 0 0-.566-.234H6.452L4.007 5.123zm14.905 12.151 7.397 7.397a2.732 2.732 0 0 1-.032 3.838 2.736 2.736 0 0 1-3.838.032l-7.25-7.25 2.866-3.48c.214-.259.542-.389.856-.536zm.406 4.275a.797.797 0 0 0 0 1.132l3.5 3.5a.797.797 0 0 0 1.132 0 .797.797 0 0 0 0-1.132l-3.5-3.5a.797.797 0 0 0-1.132 0zM6.489 24.7a.8.8 0 0 0-.8.8v.011a.8.8 0 0 0 .8.8H6.5a.8.8 0 0 0 .8-.8V25.5a.8.8 0 0 0-.8-.8zm.005.016.791.791-.791.788-.787-.788z"/>
    </symbol>
  </defs>
</svg>
